<svg width="45" height="45" viewBox="0 0 45 45" fill="none" xmlns="http://www.w3.org/2000/svg">
<path fill-rule="evenodd" clip-rule="evenodd" d="M9.52354 9.50438C16.6392 2.39813 28.2079 2.47313 35.3667 9.63376C42.5292 16.7963 42.6042 28.3706 35.4867 35.4863C28.371 42.6019 16.7967 42.5288 9.63417 35.3663C7.61948 33.3599 6.09726 30.9138 5.187 28.2201C4.27674 25.5265 4.00322 22.6584 4.38792 19.8413C4.43839 19.4715 4.63367 19.137 4.9308 18.9112C5.22793 18.6855 5.60257 18.587 5.97229 18.6375C6.34202 18.688 6.67656 18.8833 6.9023 19.1804C7.12805 19.4775 7.22652 19.8522 7.17604 20.2219C6.84949 22.6093 7.081 25.04 7.85237 27.3229C8.62374 29.6058 9.91396 31.6787 11.6217 33.3788C17.706 39.4613 27.4992 39.4969 33.4992 33.4988C39.4973 27.4988 39.4617 17.7056 33.3792 11.6213C27.2985 5.54251 17.511 5.50313 11.511 11.4938L12.9135 11.4994C13.0982 11.5002 13.2809 11.5375 13.4512 11.6089C13.6215 11.6804 13.776 11.7847 13.906 11.9159C14.036 12.0471 14.1388 12.2026 14.2087 12.3735C14.2786 12.5445 14.3141 12.7275 14.3132 12.9122C14.3124 13.0969 14.2751 13.2796 14.2037 13.4498C14.1322 13.6201 14.0279 13.7747 13.8967 13.9046C13.7655 14.0346 13.61 14.1375 13.4391 14.2074C13.2681 14.2772 13.0851 14.3127 12.9004 14.3119L8.12667 14.2894C7.75598 14.2874 7.40107 14.1392 7.13912 13.8769C6.87718 13.6146 6.7294 13.2594 6.72792 12.8888L6.70354 8.11876C6.70256 7.93409 6.73796 7.75103 6.80772 7.58004C6.87748 7.40905 6.98024 7.25347 7.11012 7.12219C7.24001 6.99092 7.39448 6.8865 7.56472 6.81492C7.73495 6.74334 7.91762 6.70599 8.10229 6.70501C8.28697 6.70402 8.47002 6.73942 8.64101 6.80918C8.812 6.87894 8.96758 6.9817 9.09886 7.11159C9.23014 7.24147 9.33455 7.39594 9.40613 7.56618C9.47771 7.73642 9.51506 7.91909 9.51604 8.10376L9.52354 9.50438ZM22.4985 13.5919C22.8715 13.5919 23.2292 13.74 23.4929 14.0038C23.7566 14.2675 23.9048 14.6252 23.9048 14.9981V21.9169L28.1817 26.1919C28.316 26.3215 28.4232 26.4767 28.497 26.6482C28.5708 26.8197 28.6097 27.0042 28.6114 27.191C28.6131 27.3777 28.5776 27.5629 28.507 27.7357C28.4364 27.9086 28.332 28.0656 28.2 28.1977C28.0681 28.3298 27.9111 28.4343 27.7383 28.5051C27.5655 28.5759 27.3804 28.6116 27.1936 28.61C27.0069 28.6085 26.8224 28.5698 26.6508 28.4962C26.4792 28.4226 26.324 28.3155 26.1942 28.1813L21.0942 23.0813V15C21.0942 14.627 21.2423 14.2694 21.506 14.0056C21.7698 13.7419 22.1275 13.5938 22.5004 13.5938" fill="white"/>
</svg>
