<svg width="45" height="45" viewBox="0 0 45 45" fill="none" xmlns="http://www.w3.org/2000/svg">
<path d="M40.2169 23.9882C40.2169 27.8026 39.0859 31.5312 36.9667 34.7028C34.8476 37.8743 31.8356 40.3462 28.3116 41.8059C24.7876 43.2656 20.9098 43.6475 17.1688 42.9033C13.4277 42.1592 9.99133 40.3224 7.29417 37.6253C4.59702 34.9281 2.76023 31.4917 2.01609 27.7507C1.27194 24.0096 1.65386 20.1319 3.11355 16.6079C4.57324 13.0839 7.04514 10.0719 10.2167 7.95271C13.3882 5.83357 17.1169 4.70248 20.9312 4.70248M1.64552 23.9882H23.898" stroke="white" stroke-width="2" stroke-linecap="round" stroke-linejoin="round"/>
<path d="M20.9313 4.70248C16.4754 10.1814 13.8773 16.9355 13.5127 23.9882C13.8773 31.0409 16.4754 37.795 20.9313 43.2739C24.424 38.9787 26.7904 33.8802 27.8163 28.44" stroke="white" stroke-width="2" stroke-linecap="round" stroke-linejoin="round"/>
<path d="M23.7988 12.7607C22.6738 12.5678 22.6738 10.9478 23.7988 10.7518C25.797 10.4047 27.6466 9.47026 29.1115 8.0677C30.5765 6.66513 31.5905 4.85799 32.0242 2.87677L32.0885 2.56499C32.336 1.44963 33.9206 1.43999 34.1778 2.55534L34.2581 2.91856C34.7085 4.89081 35.7317 6.68598 37.1991 8.07852C38.6666 9.47106 40.5128 10.3989 42.506 10.7453C43.6374 10.9414 43.6374 12.5711 42.506 12.7703C40.5128 13.1168 38.6666 14.0446 37.1991 15.4372C35.7317 16.8297 34.7085 18.6249 34.2581 20.5971L34.1778 20.9571C33.9206 22.0693 32.336 22.0628 32.0885 20.9475L32.0242 20.6389C31.5905 18.6577 30.5765 16.8506 29.1115 15.448C27.6466 14.0454 25.797 13.1078 23.7988 12.7607Z" stroke="white" stroke-width="2" stroke-linecap="round" stroke-linejoin="round"/>
</svg>
