<svg width="45" height="45" viewBox="0 0 45 45" fill="none" xmlns="http://www.w3.org/2000/svg">
<path d="M37.9688 9.84375H30.9375V8.4375C30.9375 7.31862 30.493 6.24556 29.7019 5.45439C28.9107 4.66322 27.8376 4.21875 26.7188 4.21875H18.2812C17.1624 4.21875 16.0893 4.66322 15.2981 5.45439C14.507 6.24556 14.0625 7.31862 14.0625 8.4375V9.84375H7.03125C6.28533 9.84375 5.56996 10.1401 5.04251 10.6675C4.51507 11.195 4.21875 11.9103 4.21875 12.6562V35.1562C4.21875 35.9022 4.51507 36.6175 5.04251 37.145C5.56996 37.6724 6.28533 37.9688 7.03125 37.9688H37.9688C38.7147 37.9688 39.43 37.6724 39.9575 37.145C40.4849 36.6175 40.7812 35.9022 40.7812 35.1562V12.6562C40.7812 11.9103 40.4849 11.195 39.9575 10.6675C39.43 10.1401 38.7147 9.84375 37.9688 9.84375ZM16.875 8.4375C16.875 8.06454 17.0232 7.70685 17.2869 7.44313C17.5506 7.17941 17.9083 7.03125 18.2812 7.03125H26.7188C27.0917 7.03125 27.4494 7.17941 27.7131 7.44313C27.9768 7.70685 28.125 8.06454 28.125 8.4375V9.84375H16.875V8.4375ZM37.9688 12.6562V19.9705C33.2223 22.5541 27.9041 23.9072 22.5 23.9062C17.0961 23.9072 11.7781 22.5548 7.03125 19.9723V12.6562H37.9688ZM37.9688 35.1562H7.03125V23.1398C11.8475 25.4957 17.1384 26.7198 22.5 26.7188C27.8617 26.7189 33.1525 25.4942 37.9688 23.1381V35.1562ZM18.2812 19.6875C18.2812 19.3145 18.4294 18.9569 18.6931 18.6931C18.9569 18.4294 19.3145 18.2812 19.6875 18.2812H25.3125C25.6855 18.2812 26.0431 18.4294 26.3069 18.6931C26.5706 18.9569 26.7188 19.3145 26.7188 19.6875C26.7188 20.0605 26.5706 20.4181 26.3069 20.6819C26.0431 20.9456 25.6855 21.0938 25.3125 21.0938H19.6875C19.3145 21.0938 18.9569 20.9456 18.6931 20.6819C18.4294 20.4181 18.2812 20.0605 18.2812 19.6875Z" fill="#FF6C37"/>
</svg>
