<svg width="30" height="30" viewBox="0 0 30 30" fill="none" xmlns="http://www.w3.org/2000/svg">
<path fill-rule="evenodd" clip-rule="evenodd" d="M13.4225 4.0625C12.455 4.0625 11.6488 4.80125 11.5638 5.765C11.3873 7.77868 11.3426 9.80174 11.43 11.8212L11.1138 11.8438L9.25125 11.9788C8.97925 11.9986 8.71707 12.0888 8.49037 12.2404C8.26368 12.392 8.08024 12.5999 7.95802 12.8437C7.8358 13.0876 7.77899 13.3589 7.79314 13.6313C7.80729 13.9036 7.89192 14.1677 8.03875 14.3975C9.40928 16.5422 11.1752 18.4065 13.2425 19.8913L13.9875 20.4275C14.2825 20.6395 14.6367 20.7536 15 20.7536C15.3633 20.7536 15.7175 20.6395 16.0125 20.4275L16.7575 19.8913C18.8248 18.4066 20.5908 16.5422 21.9613 14.3975C22.1081 14.1677 22.1927 13.9036 22.2069 13.6313C22.221 13.3589 22.1642 13.0876 22.042 12.8437C21.9198 12.5999 21.7363 12.392 21.5096 12.2404C21.2829 12.0888 21.0208 11.9986 20.7488 11.9788L18.8863 11.8438C18.7809 11.8359 18.6754 11.8284 18.57 11.8212C18.6575 9.8025 18.6125 7.77875 18.4363 5.765C18.3956 5.30013 18.1821 4.86739 17.838 4.55221C17.4939 4.23702 17.0441 4.06229 16.5775 4.0625H13.4225ZM13.3525 12.6437C13.2101 10.4095 13.2365 8.16776 13.4313 5.9375H16.5688C16.764 8.16772 16.7908 10.4095 16.6488 12.6437C16.641 12.7676 16.6579 12.8918 16.6985 13.0091C16.7391 13.1263 16.8025 13.2344 16.8852 13.327C16.9679 13.4195 17.0681 13.4947 17.1801 13.5483C17.2921 13.6018 17.4136 13.6325 17.5375 13.6388C17.9425 13.6588 18.3463 13.6837 18.75 13.7137L20.1013 13.8125C18.9011 15.58 17.399 17.1223 15.6638 18.3687L15.0013 18.845L14.3363 18.3687C12.601 17.1223 11.0989 15.58 9.89875 13.8125L11.25 13.7125C11.6538 13.6838 12.0588 13.6588 12.4625 13.6388C12.5866 13.6327 12.7082 13.6021 12.8203 13.5486C12.9324 13.4952 13.0328 13.42 13.1156 13.3274C13.1984 13.2348 13.262 13.1267 13.3027 13.0093C13.3433 12.892 13.3603 12.7677 13.3525 12.6437Z" fill="#333333"/>
<path d="M7.1875 21.25C7.1875 21.0014 7.08873 20.7629 6.91291 20.5871C6.7371 20.4113 6.49864 20.3125 6.25 20.3125C6.00136 20.3125 5.7629 20.4113 5.58709 20.5871C5.41127 20.7629 5.3125 21.0014 5.3125 21.25V23.75C5.3125 24.9575 6.2925 25.9375 7.5 25.9375H22.5C23.0802 25.9375 23.6366 25.707 24.0468 25.2968C24.457 24.8866 24.6875 24.3302 24.6875 23.75V21.25C24.6875 21.0014 24.5887 20.7629 24.4129 20.5871C24.2371 20.4113 23.9986 20.3125 23.75 20.3125C23.5014 20.3125 23.2629 20.4113 23.0871 20.5871C22.9113 20.7629 22.8125 21.0014 22.8125 21.25V23.75C22.8125 23.8329 22.7796 23.9124 22.721 23.971C22.6624 24.0296 22.5829 24.0625 22.5 24.0625H7.5C7.41712 24.0625 7.33763 24.0296 7.27903 23.971C7.22042 23.9124 7.1875 23.8329 7.1875 23.75V21.25Z" fill="#333333"/>
</svg>
