<svg width="12" height="12" viewBox="0 0 12 12" fill="none" xmlns="http://www.w3.org/2000/svg">
<path d="M5.78813 9.68452C5.834 9.75114 5.89537 9.80562 5.96697 9.84325C6.03857 9.88088 6.11824 9.90054 6.19913 9.90054C6.28001 9.90054 6.35968 9.88088 6.43128 9.84325C6.50288 9.80562 6.56426 9.75114 6.61013 9.68452L11.1101 3.18452C11.1622 3.10955 11.1928 3.02174 11.1984 2.93063C11.2041 2.83951 11.1847 2.74859 11.1424 2.66772C11.1 2.58686 11.0363 2.51915 10.9581 2.47195C10.88 2.42476 10.7904 2.39988 10.6991 2.40003H1.69913C1.60805 2.4004 1.5188 2.4256 1.44097 2.47291C1.36314 2.52021 1.29968 2.58784 1.25741 2.66852C1.21514 2.7492 1.19567 2.83987 1.20108 2.93079C1.20649 3.02171 1.23659 3.10943 1.28813 3.18452L5.78813 9.68452Z" fill="#FF6C37"/>
</svg>
