<svg width="73" height="73" viewBox="0 0 73 73" fill="none" xmlns="http://www.w3.org/2000/svg">
<path d="M39.1884 7.70153C38.136 5.71228 34.8632 5.71228 33.8108 7.70153L6.43576 59.4099C6.18933 59.8733 6.06716 60.3927 6.08116 60.9174C6.09515 61.4421 6.24483 61.9543 6.51561 62.4039C6.78639 62.8536 7.16903 63.2255 7.62626 63.4833C8.08348 63.7411 8.59969 63.876 9.12459 63.875H63.8746C64.3991 63.8761 64.915 63.7413 65.3719 63.4836C65.8288 63.226 66.2112 62.8543 66.4817 62.4049C66.7522 61.9555 66.9016 61.4436 66.9154 60.9193C66.9292 60.3949 66.8069 59.8759 66.5604 59.4129L39.1884 7.70153ZM39.5413 54.75H33.4579V48.6667H39.5413V54.75ZM33.4579 42.5834V27.375H39.5413L39.5443 42.5834H33.4579Z" fill="#E30303"/>
</svg>
