<svg width="41" height="35" viewBox="0 0 41 35" fill="none" xmlns="http://www.w3.org/2000/svg">
<g clip-path="url(#clip0_102_32)">
<path d="M7.63723 17.4971C7.63723 17.9966 7.53843 18.4913 7.34648 18.9528C7.15452 19.4144 6.87318 19.8337 6.51849 20.187C6.16381 20.5402 5.74274 20.8204 5.27933 21.0116C4.81592 21.2027 4.31923 21.3011 3.81764 21.3011C3.31604 21.3011 2.81936 21.2027 2.35594 21.0116C1.89253 20.8204 1.47146 20.5402 1.11678 20.187C0.762097 19.8337 0.480748 19.4144 0.288796 18.9528C0.0968435 18.4913 -0.00195313 17.9966 -0.00195312 17.4971C-0.00195311 16.4882 0.400467 15.5206 1.11678 14.8072C1.83309 14.0938 2.80462 13.693 3.81764 13.693C4.83065 13.693 5.80218 14.0938 6.51849 14.8072C7.23481 15.5206 7.63723 16.4882 7.63723 17.4971ZM7.63723 3.80333C7.63723 4.30289 7.53843 4.79755 7.34648 5.25908C7.15452 5.72061 6.87318 6.13997 6.51849 6.49321C6.16381 6.84645 5.74274 7.12665 5.27933 7.31783C4.81592 7.509 4.31923 7.60739 3.81764 7.60739C3.31604 7.60739 2.81936 7.509 2.35594 7.31783C1.89253 7.12665 1.47146 6.84645 1.11678 6.49321C0.762097 6.13997 0.480748 5.72061 0.288796 5.25908C0.0968435 4.79755 -0.00195313 4.30289 -0.00195312 3.80333C-0.00195311 2.79443 0.400467 1.82685 1.11678 1.11345C1.83309 0.400052 2.80462 -0.000732422 3.81764 -0.000732422C4.83065 -0.000732422 5.80218 0.400052 6.51849 1.11345C7.23481 1.82685 7.63723 2.79443 7.63723 3.80333ZM7.63723 31.1923C7.63723 31.6918 7.53843 32.1865 7.34648 32.648C7.15452 33.1096 6.87318 33.5289 6.51849 33.8822C6.16381 34.2354 5.74274 34.5156 5.27933 34.7068C4.81592 34.898 4.31923 34.9963 3.81764 34.9963C3.31604 34.9963 2.81936 34.898 2.35594 34.7068C1.89253 34.5156 1.47146 34.2354 1.11678 33.8822C0.762097 33.5289 0.480748 33.1096 0.288796 32.648C0.0968435 32.1865 -0.00195313 31.6918 -0.00195312 31.1923C-0.00195311 30.1834 0.400467 29.2158 1.11678 28.5024C1.83309 27.789 2.80462 27.3882 3.81764 27.3882C4.83065 27.3882 5.80218 27.789 6.51849 28.5024C7.23481 29.2158 7.63723 30.1834 7.63723 31.1923ZM14.3407 -3.31184e-06H36.6667C37.6803 -3.31184e-06 38.6524 0.401011 39.3691 1.11482C40.0858 1.82863 40.4885 2.79677 40.4885 3.80625C40.4885 4.81573 40.0858 5.78386 39.3691 6.49767C38.6524 7.21148 37.6803 7.6125 36.6667 7.6125H14.3407C13.3271 7.6125 12.355 7.21148 11.6383 6.49767C10.9216 5.78386 10.5189 4.81573 10.5189 3.80625C10.5189 2.79677 10.9216 1.82863 11.6383 1.11482C12.355 0.401011 13.3271 -3.31184e-06 14.3407 -3.31184e-06ZM14.3407 13.6937H36.6667C37.1686 13.6937 37.6655 13.7922 38.1292 13.9835C38.5929 14.1748 39.0142 14.4551 39.3691 14.8086C39.724 15.162 40.0055 15.5816 40.1976 16.0434C40.3896 16.5052 40.4885 17.0002 40.4885 17.5C40.4885 17.9998 40.3896 18.4948 40.1976 18.9566C40.0055 19.4184 39.724 19.838 39.3691 20.1914C39.0142 20.5449 38.5929 20.8252 38.1292 21.0165C37.6655 21.2078 37.1686 21.3062 36.6667 21.3062H14.3407C13.8388 21.3062 13.3419 21.2078 12.8782 21.0165C12.4145 20.8252 11.9932 20.5449 11.6383 20.1914C11.2834 19.838 11.0019 19.4184 10.8099 18.9566C10.6178 18.4948 10.5189 17.9998 10.5189 17.5C10.5189 17.0002 10.6178 16.5052 10.8099 16.0434C11.0019 15.5816 11.2834 15.162 11.6383 14.8086C11.9932 14.4551 12.4145 14.1748 12.8782 13.9835C13.3419 13.7922 13.8388 13.6937 14.3407 13.6937ZM14.3407 27.389H36.6667C37.1686 27.389 37.6655 27.4874 38.1292 27.6787C38.5929 27.87 39.0142 28.1503 39.3691 28.5038C39.724 28.8572 40.0055 29.2768 40.1976 29.7386C40.3896 30.2004 40.4885 30.6954 40.4885 31.1952C40.4885 31.6951 40.3896 32.19 40.1976 32.6518C40.0055 33.1136 39.724 33.5332 39.3691 33.8866C39.0142 34.2401 38.5929 34.5204 38.1292 34.7117C37.6655 34.903 37.1686 35.0015 36.6667 35.0015H14.3407C13.8388 35.0015 13.3419 34.903 12.8782 34.7117C12.4145 34.5204 11.9932 34.2401 11.6383 33.8866C11.2834 33.5332 11.0019 33.1136 10.8099 32.6518C10.6178 32.19 10.5189 31.6951 10.5189 31.1952C10.5189 30.6954 10.6178 30.2004 10.8099 29.7386C11.0019 29.2768 11.2834 28.8572 11.6383 28.5038C11.9932 28.1503 12.4145 27.87 12.8782 27.6787C13.3419 27.4874 13.8388 27.389 14.3407 27.389Z" fill="black"/>
</g>
<defs>
<clipPath id="clip0_102_32">
<rect width="41" height="35" fill="white"/>
</clipPath>
</defs>
</svg>
