<svg width="22" height="23" viewBox="0 0 22 23" fill="none" xmlns="http://www.w3.org/2000/svg">
<path d="M17 9H19C19.5304 9 20.0391 9.21071 20.4142 9.58579C20.7893 9.96086 21 10.4696 21 11V17C21 17.5304 20.7893 18.0391 20.4142 18.4142C20.0391 18.7893 19.5304 19 19 19H18.07C17.7408 19 17.4167 19.0812 17.1264 19.2364C16.8362 19.3917 16.5887 19.6162 16.406 19.89L15.832 20.752C15.7407 20.889 15.617 21.0013 15.4718 21.0789C15.3267 21.1566 15.1646 21.1972 15 21.1972C14.8354 21.1972 14.6733 21.1566 14.5282 21.0789C14.383 21.0013 14.2593 20.889 14.168 20.752L13.594 19.891C13.4114 19.617 13.164 19.3923 12.8737 19.2369C12.5834 19.0814 12.2593 19.0001 11.93 19H11C10.4696 19 9.96086 18.7893 9.58579 18.4142C9.21071 18.0391 9 17.5304 9 17V16M11 1H3C2.46957 1 1.96086 1.21071 1.58579 1.58579C1.21071 1.96086 1 2.46957 1 3V9C1 9.53043 1.21071 10.0391 1.58579 10.4142C1.96086 10.7893 2.46957 11 3 11H3.93C4.25918 11 4.58329 11.0812 4.87357 11.2364C5.16384 11.3917 5.4113 11.6162 5.594 11.89L6.168 12.752C6.25932 12.889 6.38304 13.0013 6.52818 13.0789C6.67332 13.1566 6.83539 13.1972 7 13.1972C7.16461 13.1972 7.32668 13.1566 7.47182 13.0789C7.61696 13.0013 7.74068 12.889 7.832 12.752L8.406 11.891C8.58858 11.617 8.836 11.3923 9.12628 11.2369C9.41656 11.0814 9.74072 11.0001 10.07 11H11C11.5304 11 12.0391 10.7893 12.4142 10.4142C12.7893 10.0391 13 9.53043 13 9V3C13 2.46957 12.7893 1.96086 12.4142 1.58579C12.0391 1.21071 11.5304 1 11 1Z" stroke="#333333" stroke-width="2" stroke-linecap="round" stroke-linejoin="round"/>
</svg>
