<svg width="30" height="30" viewBox="0 0 30 30" fill="none" xmlns="http://www.w3.org/2000/svg">
<path fill-rule="evenodd" clip-rule="evenodd" d="M12.4304 4.0625H17.5704C19.8679 4.0625 21.6879 4.0625 23.1117 4.25375C24.5767 4.45125 25.7629 4.86625 26.6992 5.80125C27.6342 6.7375 28.0492 7.92375 28.2467 9.38875C28.3592 10.23 28.4054 11.2087 28.4242 12.3425C28.4405 12.4375 28.4422 12.5345 28.4292 12.63C28.4379 13.3375 28.4379 14.1025 28.4379 14.93V15.07C28.4379 17.3675 28.4379 19.1875 28.2467 20.6112C28.0492 22.0763 27.6342 23.2625 26.6992 24.1987C25.7629 25.1337 24.5767 25.5487 23.1117 25.7463C21.6867 25.9375 19.8679 25.9375 17.5704 25.9375H12.4304C10.1329 25.9375 8.31294 25.9375 6.88919 25.7463C5.42419 25.5487 4.23794 25.1337 3.30169 24.1987C2.36669 23.2625 1.95169 22.0763 1.75419 20.6112C1.56294 19.1863 1.56294 17.3675 1.56294 15.07V14.93C1.56294 14.1025 1.56294 13.3375 1.57169 12.63C1.55829 12.5345 1.55955 12.4376 1.57544 12.3425C1.59544 11.2087 1.64169 10.23 1.75419 9.38875C1.95169 7.92375 2.36669 6.7375 3.30169 5.80125C4.23794 4.86625 5.42419 4.45125 6.88919 4.25375C8.31419 4.0625 10.1329 4.0625 12.4304 4.0625ZM3.44044 13.4375C3.43794 13.9225 3.43794 14.4425 3.43794 15C3.43794 17.3837 3.44044 19.0763 3.61294 20.3625C3.78169 21.6188 4.09919 22.3438 4.62794 22.8725C5.15669 23.4013 5.88169 23.7188 7.13919 23.8875C8.42419 24.06 10.1167 24.0625 12.5004 24.0625H17.5004C19.8842 24.0625 21.5779 24.06 22.8629 23.8875C24.1192 23.7188 24.8442 23.4013 25.3729 22.8725C25.9017 22.3438 26.2192 21.6187 26.3879 20.3612C26.5604 19.0762 26.5629 17.3837 26.5629 15C26.5629 14.4425 26.5629 13.9225 26.5604 13.4375H3.44044ZM26.5304 11.5625H3.47044C3.49544 10.8288 3.53794 10.195 3.61294 9.6375C3.78169 8.38125 4.09919 7.65625 4.62794 7.1275C5.15669 6.59875 5.88169 6.28125 7.13919 6.1125C8.42419 5.94 10.1167 5.9375 12.5004 5.9375H17.5004C19.8842 5.9375 21.5779 5.94 22.8629 6.1125C24.1192 6.28125 24.8442 6.59875 25.3729 7.1275C25.9017 7.65625 26.2192 8.38125 26.3879 9.63875C26.4629 10.195 26.5054 10.8288 26.5304 11.5625ZM6.56294 20C6.56294 19.7514 6.66171 19.5129 6.83753 19.3371C7.01334 19.1613 7.2518 19.0625 7.50044 19.0625H12.5004C12.7491 19.0625 12.9875 19.1613 13.1634 19.3371C13.3392 19.5129 13.4379 19.7514 13.4379 20C13.4379 20.2486 13.3392 20.4871 13.1634 20.6629C12.9875 20.8387 12.7491 20.9375 12.5004 20.9375H7.50044C7.2518 20.9375 7.01334 20.8387 6.83753 20.6629C6.66171 20.4871 6.56294 20.2486 6.56294 20ZM14.6879 20C14.6879 19.7514 14.7867 19.5129 14.9625 19.3371C15.1383 19.1613 15.3768 19.0625 15.6254 19.0625H17.5004C17.7491 19.0625 17.9875 19.1613 18.1634 19.3371C18.3392 19.5129 18.4379 19.7514 18.4379 20C18.4379 20.2486 18.3392 20.4871 18.1634 20.6629C17.9875 20.8387 17.7491 20.9375 17.5004 20.9375H15.6254C15.3768 20.9375 15.1383 20.8387 14.9625 20.6629C14.7867 20.4871 14.6879 20.2486 14.6879 20Z" fill="#333333"/>
</svg>
